<?xml version="1.0" encoding="UTF-8"?>
<svg width="100px" height="100px" viewBox="0 0 100 100" version="1.1" xmlns="http://www.w3.org/2000/svg" xmlns:xlink="http://www.w3.org/1999/xlink">
    <title>icon</title>
    <g id="Page-1" stroke="none" stroke-width="1" fill="none" fill-rule="evenodd">
        <g id="icon" fill-rule="nonzero">
            <path d="M94.9552632,45.4986842 C94.5222672,44.3841689 93.9806209,43.3149793 93.3381579,42.3065789 C92.8302632,41.5 92.4421053,41.0105263 92.4421053,41.0105263 C91.9878058,40.4186116 91.4861547,39.8645952 90.9421053,39.3539474 C89.1221718,37.659164 86.8496041,36.5288221 84.4,36.1 C81.8306581,35.7138748 79.2052837,36.1660483 76.9131579,37.3894737 C70.7644737,40.5144737 69.7763158,47.5763158 69.5447368,49.2315789 C69.3959662,50.3808956 69.3492926,51.5411313 69.4052632,52.6986842 C69.5639539,56.896142 70.5008965,61.0276131 72.1684211,64.8828947 C73.0486842,67.1197368 73.2210526,67.75 74.1092105,70.3776316 C74.8526316,72.5684211 74.7881579,72.2552632 75.1421053,73.3671053 C75.675045,75.3857178 76.3423219,77.3664489 77.1394737,79.2960526 C77.3953206,79.9188449 77.7974579,80.4708247 78.3118421,80.9052632 C78.909393,81.3724321 79.61237,81.6859706 80.3592105,81.8184211 C80.9078034,81.8960679 81.4629929,81.9163528 82.0157895,81.8789474 C89.7565789,81.3421053 93.8328947,69.1631579 94.8171053,66.2210526 C95.7988996,63.2739228 96.4235392,60.2196382 96.6776316,57.1236842 C96.8544185,53.1740816 96.2696681,49.2273508 94.9552632,45.4986842 L94.9552632,45.4986842 Z" id="Path_21" fill="#FA641B"></path>
            <path d="M17.4407895,16.7855263 C11.4731795,19.5238353 6.55800283,24.1286673 3.43684211,29.9052632 C3.43684211,29.9052632 -6.19210526,47.0631579 6.78552632,68.2815789 C7.40934947,69.2816428 8.23153116,70.1432319 9.20131579,70.8131579 C9.86984655,71.2112722 10.5872496,71.520879 11.3355263,71.7342105 C17.0144737,73.3394737 20.7355263,67.7263158 34.0105263,57.8802632 C40.2171053,53.275 43.8039474,52.0736842 47.8052632,47.6526316 C50.6842105,44.4710526 52.4460526,42.4986842 53.4078947,39.2486842 C55.9421053,30.6960526 50.4815789,23.1960526 50.2171053,22.8447368 C45.2789474,16.275 37.6960526,14.7381579 34.7684211,14.3539474 C28.8789798,13.5925909 22.893201,14.4325726 17.4407895,16.7855263 L17.4407895,16.7855263 Z" id="Path_22" fill="#FA641B"></path>
            <path d="M85.2671053,19.0578947 C86.4842105,16.8644737 81.5592105,11.7592105 77.4763158,8.79473684 C71.8934211,4.74342105 63.7921053,1.72368421 62.0473684,3.79473684 C61.3486842,4.62894737 62.1355263,5.73684211 63.8894737,10.4197368 C67.4671053,19.9973684 66.7605263,22.2618421 68.9868421,23.2710526 C71.5381579,24.4236842 72.8144737,21.6 81.3815789,20.2184211 C83.7605263,19.8407895 84.8210526,19.8723684 85.2671053,19.0578947 L85.2671053,19.0578947 Z" id="Path_23" fill="#FA641B"></path>
            <path d="M51.1789474,4.07763158 C53.9545999,6.15065573 56.2906295,8.75459297 58.0513158,11.7381579 C59.8934211,14.9131579 59.9539474,16.7460526 62.7565789,20.8578947 C64.0517105,22.9067035 65.8406356,24.5974503 67.9592105,25.775 C68.6611759,26.141413 69.3948721,26.4435232 70.1513158,26.6776316 C72.0699949,27.2487877 74.0874029,27.409732 76.0723684,27.15 C79.7802632,26.6236842 79.9197368,24.8342105 83.4881579,23.8407895 C85.9628222,23.1607174 88.5808265,23.2063909 91.0302632,23.9723684 C98.2828947,26.4723684 101.440789,37.6736842 99.3078947,39.0565789 C97.4039474,40.2907895 92.7842105,32.7197368 84.5513158,31.9644737 C78.0131579,31.3644737 71.8065789,35.3026316 68.6934211,38.9671053 C56.2447368,53.6171053 81.7986842,80.7078947 70.4513158,93.5578947 C66.0736842,98.5144737 58.4907895,99.6828947 49.6342105,99.3473684 C31.6684211,98.6697368 21.675,91.5078947 21.0526316,90.9460526 C19.8586944,89.8794352 18.9243715,88.5540108 18.3210526,87.0710526 C18.0567661,85.8611946 18.0567661,84.6085422 18.3210526,83.3986842 C20.1289474,75.3171053 58.3302632,53.0855263 62.2289474,34.6697368 C64.3276316,24.7552632 49.8,13.7263158 39.6131579,10.3578947 C28.6802632,6.74342105 17.8486842,10.7644737 16.9697368,8.39868421 C16.3302632,6.67894737 21.6710526,3.52105263 25.8276316,1.95921053 C26.5065789,1.70921053 40.8631579,-3.45394737 51.1789474,4.07763158 L51.1789474,4.07763158 Z" id="Path_24" fill="#65C7CF"></path>
        </g>
    </g>
</svg>