<?xml version="1.0" encoding="utf-8"?>
<!-- Generator: Adobe Illustrator 25.2.0, SVG Export Plug-In . SVG Version: 6.00 Build 0)  -->
<svg version="1.1" id="Layer_1" xmlns="http://www.w3.org/2000/svg" xmlns:xlink="http://www.w3.org/1999/xlink" x="0px" y="0px"
	 viewBox="0 0 936 1368" style="enable-background:new 0 0 936 1368;" xml:space="preserve">
<style type="text/css">
	.st0{fill:none;stroke:#000000;stroke-width:0.5;stroke-miterlimit:2.6131;}
</style>
<path class="st0" d="M51.42,19.17h165.19c4.07,0,7.4,3.33,7.4,7.4v165.19c0,4.07-3.33,7.4-7.4,7.4H51.42c-4.07,0-7.4-3.33-7.4-7.4
	V26.57C44.01,22.5,47.34,19.17,51.42,19.17z"/>
<path class="st0" d="M274.07,19.17h165.19c4.07,0,7.4,3.33,7.4,7.4v165.19c0,4.07-3.33,7.4-7.4,7.4H274.07c-4.07,0-7.4-3.33-7.4-7.4
	V26.57C266.67,22.5,270,19.17,274.07,19.17z"/>
<path class="st0" d="M496.73,19.17h165.19c4.07,0,7.4,3.33,7.4,7.4v165.19c0,4.07-3.33,7.4-7.4,7.4H496.73c-4.07,0-7.4-3.33-7.4-7.4
	V26.57C489.33,22.5,492.66,19.17,496.73,19.17z"/>
<path class="st0" d="M719.39,19.17h165.19c4.07,0,7.4,3.33,7.4,7.4v165.19c0,4.07-3.33,7.4-7.4,7.4H719.39c-4.07,0-7.4-3.33-7.4-7.4
	V26.57C711.99,22.5,715.32,19.17,719.39,19.17z"/>
<path class="st0" d="M51.42,210.78h165.19c4.07,0,7.4,3.33,7.4,7.4v165.19c0,4.07-3.33,7.4-7.4,7.4H51.42c-4.07,0-7.4-3.33-7.4-7.4
	V218.18C44.01,214.11,47.34,210.78,51.42,210.78z"/>
<path class="st0" d="M274.07,210.78h165.19c4.07,0,7.4,3.33,7.4,7.4v165.19c0,4.07-3.33,7.4-7.4,7.4H274.07
	c-4.07,0-7.4-3.33-7.4-7.4V218.18C266.67,214.11,270,210.78,274.07,210.78z"/>
<path class="st0" d="M496.73,210.78h165.19c4.07,0,7.4,3.33,7.4,7.4v165.19c0,4.07-3.33,7.4-7.4,7.4H496.73
	c-4.07,0-7.4-3.33-7.4-7.4V218.18C489.33,214.11,492.66,210.78,496.73,210.78z"/>
<path class="st0" d="M719.39,210.78h165.19c4.07,0,7.4,3.33,7.4,7.4v165.19c0,4.07-3.33,7.4-7.4,7.4H719.39
	c-4.07,0-7.4-3.33-7.4-7.4V218.18C711.99,214.11,715.32,210.78,719.39,210.78z"/>
<path class="st0" d="M51.42,402.39h165.19c4.07,0,7.4,3.33,7.4,7.4v165.19c0,4.07-3.33,7.4-7.4,7.4H51.42c-4.07,0-7.4-3.33-7.4-7.4
	V409.79C44.01,405.72,47.34,402.39,51.42,402.39z"/>
<path class="st0" d="M274.07,402.39h165.19c4.07,0,7.4,3.33,7.4,7.4v165.19c0,4.07-3.33,7.4-7.4,7.4H274.07
	c-4.07,0-7.4-3.33-7.4-7.4V409.79C266.67,405.72,270,402.39,274.07,402.39z"/>
<path class="st0" d="M496.73,402.39h165.19c4.07,0,7.4,3.33,7.4,7.4v165.19c0,4.07-3.33,7.4-7.4,7.4H496.73
	c-4.07,0-7.4-3.33-7.4-7.4V409.79C489.33,405.72,492.66,402.39,496.73,402.39z"/>
<path class="st0" d="M719.39,402.39h165.19c4.07,0,7.4,3.33,7.4,7.4v165.19c0,4.07-3.33,7.4-7.4,7.4H719.39
	c-4.07,0-7.4-3.33-7.4-7.4V409.79C711.99,405.72,715.32,402.39,719.39,402.39z"/>
<path class="st0" d="M51.42,594h165.19c4.07,0,7.4,3.33,7.4,7.4V766.6c0,4.07-3.33,7.4-7.4,7.4H51.42c-4.07,0-7.4-3.33-7.4-7.4
	V601.4C44.01,597.33,47.34,594,51.42,594z"/>
<path class="st0" d="M274.07,594h165.19c4.07,0,7.4,3.33,7.4,7.4V766.6c0,4.07-3.33,7.4-7.4,7.4H274.07c-4.07,0-7.4-3.33-7.4-7.4
	V601.4C266.67,597.33,270,594,274.07,594z"/>
<path class="st0" d="M496.73,594h165.19c4.07,0,7.4,3.33,7.4,7.4V766.6c0,4.07-3.33,7.4-7.4,7.4H496.73c-4.07,0-7.4-3.33-7.4-7.4
	V601.4C489.33,597.33,492.66,594,496.73,594z"/>
<path class="st0" d="M719.39,594h165.19c4.07,0,7.4,3.33,7.4,7.4V766.6c0,4.07-3.33,7.4-7.4,7.4H719.39c-4.07,0-7.4-3.33-7.4-7.4
	V601.4C711.99,597.33,715.32,594,719.39,594z"/>
<path class="st0" d="M51.42,785.61h165.19c4.07,0,7.4,3.33,7.4,7.4v165.19c0,4.07-3.33,7.4-7.4,7.4H51.42c-4.07,0-7.4-3.33-7.4-7.4
	V793.01C44.01,788.94,47.34,785.61,51.42,785.61z"/>
<path class="st0" d="M274.07,785.61h165.19c4.07,0,7.4,3.33,7.4,7.4v165.19c0,4.07-3.33,7.4-7.4,7.4H274.07
	c-4.07,0-7.4-3.33-7.4-7.4V793.01C266.67,788.94,270,785.61,274.07,785.61z"/>
<path class="st0" d="M496.73,785.61h165.19c4.07,0,7.4,3.33,7.4,7.4v165.19c0,4.07-3.33,7.4-7.4,7.4H496.73
	c-4.07,0-7.4-3.33-7.4-7.4V793.01C489.33,788.94,492.66,785.61,496.73,785.61z"/>
<path class="st0" d="M719.39,785.61h165.19c4.07,0,7.4,3.33,7.4,7.4v165.19c0,4.07-3.33,7.4-7.4,7.4H719.39
	c-4.07,0-7.4-3.33-7.4-7.4V793.01C711.99,788.94,715.32,785.61,719.39,785.61z"/>
<path class="st0" d="M51.42,977.22h165.19c4.07,0,7.4,3.33,7.4,7.4v165.19c0,4.07-3.33,7.4-7.4,7.4H51.42c-4.07,0-7.4-3.33-7.4-7.4
	V984.63C44.01,980.55,47.34,977.22,51.42,977.22z"/>
<path class="st0" d="M274.07,977.22h165.19c4.07,0,7.4,3.33,7.4,7.4v165.19c0,4.07-3.33,7.4-7.4,7.4H274.07
	c-4.07,0-7.4-3.33-7.4-7.4V984.63C266.67,980.55,270,977.22,274.07,977.22z"/>
<path class="st0" d="M496.73,977.22h165.19c4.07,0,7.4,3.33,7.4,7.4v165.19c0,4.07-3.33,7.4-7.4,7.4H496.73
	c-4.07,0-7.4-3.33-7.4-7.4V984.63C489.33,980.55,492.66,977.22,496.73,977.22z"/>
<path class="st0" d="M719.39,977.22h165.19c4.07,0,7.4,3.33,7.4,7.4v165.19c0,4.07-3.33,7.4-7.4,7.4H719.39
	c-4.07,0-7.4-3.33-7.4-7.4V984.63C711.99,980.55,715.32,977.22,719.39,977.22z"/>
<path class="st0" d="M51.42,1168.83h165.19c4.07,0,7.4,3.33,7.4,7.4v165.19c0,4.07-3.33,7.4-7.4,7.4H51.42c-4.07,0-7.4-3.33-7.4-7.4
	v-165.19C44.01,1172.16,47.34,1168.83,51.42,1168.83z"/>
<path class="st0" d="M274.07,1168.83h165.19c4.07,0,7.4,3.33,7.4,7.4v165.19c0,4.07-3.33,7.4-7.4,7.4H274.07
	c-4.07,0-7.4-3.33-7.4-7.4v-165.19C266.67,1172.16,270,1168.83,274.07,1168.83z"/>
<path class="st0" d="M496.73,1168.83h165.19c4.07,0,7.4,3.33,7.4,7.4v165.19c0,4.07-3.33,7.4-7.4,7.4H496.73
	c-4.07,0-7.4-3.33-7.4-7.4v-165.19C489.33,1172.16,492.66,1168.83,496.73,1168.83z"/>
<path class="st0" d="M719.39,1168.83h165.19c4.07,0,7.4,3.33,7.4,7.4v165.19c0,4.07-3.33,7.4-7.4,7.4H719.39
	c-4.07,0-7.4-3.33-7.4-7.4v-165.19C711.99,1172.16,715.32,1168.83,719.39,1168.83z"/>
</svg>
